<svg fill="currentColor"  id="delivery-page" xmlns="http://www.w3.org/2000/svg" viewBox="0 0 32 32">
  <g id="delivery_truck" data-name="delivery truck">
    <path
      d="M29,19a1,1,0,0,0,1-1V16.76a2.05,2.05,0,0,0-1.42-2l-1.69-.56-.52-3A4.17,4.17,0,0,0,22.09,8H19V5.89A1.88,1.88,0,0,0,17.11,4h0L4,4A2,2,0,0,0,2,6V22a2,2,0,0,0,2,2h.08a4,4,0,0,0,0,.5,3.52,3.52,0,1,0,1-2.49H5L4,22,4,6,17,6V22H14a1,1,0,0,0,0,2h5.88a2.73,2.73,0,0,0-.05.5,3.6,3.6,0,0,0,6.44,2.11A3.38,3.38,0,0,0,27,24.5a4,4,0,0,0,0-.5H28a2,2,0,0,0,2-2,1,1,0,0,0-1-1,1,1,0,0,0-1,1H25.9a3.56,3.56,0,0,0-2.49-1,3.65,3.65,0,0,0-2.52,1H19V16h6.79l2.21.76V18A1,1,0,0,0,29,19ZM7.5,23A1.5,1.5,0,1,1,6,24.5,1.5,1.5,0,0,1,7.5,23Zm15.91,0a1.6,1.6,0,0,1,1.28.61,1.43,1.43,0,0,1,0,1.78,1.6,1.6,0,0,1-1.28.61,1.5,1.5,0,1,1,0-3ZM22.09,10a2.22,2.22,0,0,1,2.31,1.57L24.82,14H19V10Z" />
  </g>
</svg>
